<?xml version="1.0" encoding="UTF-8"?><svg id="_レイヤー_2" xmlns="http://www.w3.org/2000/svg" viewBox="0 0 391.63 589.25"><defs><style>.cls-1{fill:#fff;}</style></defs><g id="_レイヤー_1-2"><path class="cls-1" d="m255.01,517.93c-7.69-5.3-15.86-9.78-23.89-14.51-5.35-3.15-5.41-3.1-10.33.8-10.15,8.06-17.77,18.25-24.4,29.26-.99,1.65-.92,2.73.86,3.81,4.46,2.7,8.75,5.69,13.35,8.18,1.58.86,2.54.66,3.47-.89,1.31-2.17,2.81-4.23,4.15-6.38.72-1.15,1.32-1.46,2.58-.57,2.37,1.67,4.93,3.08,7.34,4.7,1.19.8,2.01.58,2.88-.43,2.08-2.44,4.2-4.86,6.32-7.26,1.13-1.28,1.98-3.56,4.26-1.36.12.12.43.04.66.05,1.46.07,2.29-.96,3.13-1.86,3.37-3.61,6.64-7.3,10.04-10.88,1.17-1.24.9-1.76-.42-2.68Zm-9.76,10.1c-.76,1.05-1.37.78-2.29.18-4.37-2.86-8.88-5.49-13.56-7.82-.71-.36-1.5-1.25-2.3-.42-1.12,1.16-2.33,2.34-2.73,3.96-.14.57.68.58,1.13.8,3.31,1.62,6.44,3.56,9.54,5.54,1.12.71,1.14,1.16.23,2.09-1.74,1.78-3.4,3.64-4.98,5.56-.8.97-1.35,1.09-2.51.44-3.05-1.72-5.88-3.82-9.17-5.13-1.31-.52-2.19-.39-3.14.71-2.08,2.41-4.02,4.91-5.67,7.63-.57.95-.95,1.43-2.13.7-2.76-1.72-5.59-3.33-8.45-4.88-1.03-.56-1.37-.95-.66-2.08,7.07-11.45,14.99-22.17,25.58-30.69,1.18-.95,2.2-1.67,3.85-.64,8.35,5.21,17.08,9.83,25.26,15.82-3.04,2.58-5.77,5.18-8,8.25Z"/><path class="cls-1" d="m114.55,149.5c1.78,0,2.73-.86,2.76-2.49.03-1.43-1.24-2.69-2.7-2.67-1.3.01-2.27,1.11-2.3,2.59-.03,1.55.87,2.58,2.24,2.57Z"/><path class="cls-1" d="m148.25,357.38c1.23.05,1.43-1.04,1.51-2.2.02-1.01-.54-1.75-1.67-1.78-1.07-.03-1.6.76-1.56,1.76.05,1.09.49,2.17,1.72,2.22Z"/><path class="cls-1" d="m134.84,194.66c2.19.19,2.49-.79,2.61-1.3.44-2.45-.47-3.55-2.66-3.81-1.81-.21-2.26.83-2.33,1.96-.09,1.43-.4,2.9,2.38,3.15Z"/><path class="cls-1" d="m140.5,224.54c-.13,1.98,1.64,2.49,3.12,2.65,1.77.19,2.01-1.24,2.03-2.52.03-1.5-.38-2.67-2.43-2.62-1.87-.01-2.63.95-2.73,2.49Z"/><path class="cls-1" d="m144.38,243.85c.04,1.3.94,2.05,2.62,2.03,1.78-.02,1.9-.99,1.89-2.1.03-1.4-.77-2.44-2.27-2.41-1.52.03-2.28,1.26-2.25,2.48Z"/><path class="cls-1" d="m136.53,207.85c-.04,1.65,1.68,2.46,3.45,2.5,1.98.04,1.53-1.48,1.7-2.24.13-1.83-.35-3-2.75-2.91-2.2.08-2.36,1.54-2.39,2.66Z"/><path class="cls-1" d="m121.22,162.92c1.21-.09,2.47-.77,2.37-2.58-.56-1.1-1.15-2.63-3.03-2.57-1.8.06-2.2,1.49-2.12,2.87.09,1.52,1.31,2.39,2.77,2.28Z"/><path class="cls-1" d="m143,370c-.8.07-1.47.52-1.36,1.39.11.91.86,1.35,1.74,1.34.77-.01.87-.63.88-1.31-.27-.57-.22-1.51-1.26-1.41Z"/><path class="cls-1" d="m136.73,383.91c-.77.03-1.37.44-1.37,1.19,0,1,.83,1.31,1.73,1.47.83-.06,1.02-.71,1.07-1.39.06-.98-.56-1.3-1.43-1.26Z"/><path class="cls-1" d="m129.63,179.43c1.34.14,2.09-1.49,2.09-3.58-.26-1.51-1.01-3.01-2.72-2.86-1.64.15-2.51,1.64-2.44,3.54.09,2.16,1.86,2.77,3.06,2.89Z"/><path class="cls-1" d="m132.16,398.66c-.11-.97-.86-1.32-1.72-1.3-1.41.04-1.46,1.13-1.48,2.14-.02.9.52,1.21,1.4,1.05,1.06-.19,1.96-.57,1.8-1.88Z"/><path class="cls-1" d="m124.26,409.58c-1.01-.19-1.65.22-1.61,1.13.04.99.45,1.92,1.75,2.05,1.1.11,1.22-.77,1.47-1.39.09-1.08-.56-1.59-1.6-1.78Z"/><path class="cls-1" d="m302.02,228.73c1.39.1,1.73-.53,1.74-1.42,0-.93-.18-1.78-1.57-1.8-1.12-.01-1.63.59-1.66,1.49-.02.94.21,1.74,1.49,1.72Z"/><path class="cls-1" d="m295.54,209.1c1.11.04,1.07-.99,1.34-1.8-.18-.89-.72-1.51-1.85-1.41-.79.07-1.44.43-1.37,1.32.08,1.09.73,1.86,1.88,1.89Z"/><path class="cls-1" d="m287.79,191.36c1,.54.87-.44,1.1-.97-.1-1.16-.65-1.86-1.68-2.06-.86-.17-1.47.36-1.54,1.2-.14,1.67,1.28,1.39,2.11,1.84Z"/><path class="cls-1" d="m266.01,298.28c1.72-.35,2.58-.53,4.3-.9-1.37-5.25-2.06-7.87-3.42-13.13-.34,5.61-.52,8.41-.88,14.02Z"/><path class="cls-1" d="m236.91,287.01c-.24-.64-.51-1.11-.82-1.43-.31-.32-.65-.52-1.02-.6-.38-.09-.74-.1-1.08-.06-1.01.12-1.52.17-2.53.28.31,3.99.46,5.98.77,9.96.92-.1,1.38-.15,2.29-.25.35-.04.72-.12,1.1-.23.38-.1.72-.33,1.02-.68.29-.35.51-.86.67-1.55.16-.69.18-1.62.09-2.82-.09-1.12-.25-1.99-.48-2.63Z"/><path class="cls-1" d="m115.55,287.62c.3-.1.55-.31.78-.63.23-.32.41-.77.54-1.35.13-.59.18-1.31.16-2.18-.02-.9-.12-1.67-.29-2.3-.18-.63-.4-1.14-.66-1.53-.26-.38-.55-.68-.88-.9-.33-.21-.64-.35-.94-.42-1.07-.24-1.61-.36-2.68-.6.08,3.72.13,5.59.21,9.31,1.15.26,1.72.39,2.87.64.31.07.6.05.9-.05Z"/><path class="cls-1" d="m167.6,309.98c.55,1.29,1.18,2.32,1.91,3.07.72.75,1.5,1.16,2.35,1.21.85.06,1.6-.25,2.25-.91.65-.66,1.19-1.61,1.62-2.84.43-1.23.73-2.7.9-4.4.17-1.69.21-3.58.1-5.64-.1-2.03-.33-3.91-.68-5.65-.35-1.75-.8-3.27-1.35-4.55-.55-1.29-1.18-2.3-1.89-3.04-.71-.74-1.49-1.14-2.33-1.2-.84-.06-1.57.25-2.22.9-.65.66-1.18,1.59-1.61,2.81-.43,1.22-.73,2.69-.91,4.4-.18,1.71-.22,3.58-.13,5.6.1,2.06.31,3.96.66,5.69.34,1.73.79,3.25,1.34,4.55Z"/><path class="cls-1" d="m386.54,537.55c-.57-.56-.89-1.18-1.18-1.85-2.67-6.34-7.31-10.35-13.95-12.21-3.94-1.11-7.91-2.09-11.88-3.1-8.01-2.06-15.67-5.19-23.37-8.16-3.15-1.22-6.58-2.29-9.07-4.66-3.49-3.31-7.53-4.98-12.2-5.43-.84-.08-1.57-.15-2.06-1.03-1.1-2.01-3.01-3.08-5.04-3.89-4.08-1.63-8.86-1.57-12.18-5.06-.22-.23-.68-.26-1.03-.35-2.55-.63-4.39-1.97-5.18-4.63-.62-2.06-2-3.65-3.84-4.8-.76-.48-1.6-.92-1.8-1.88-.43-2.08-1.95-3.31-3.71-3.84-2.65-.79-4.24-2.66-5.86-4.61-.38-.46-.71-.97-1.15-1.36-6.44-5.6-12.56-11.52-18.65-17.48-.48-.46-.98-1-1.58-1.22-4.61-1.72-9.29-2.44-14.23-1.38-6.81,1.47-12.56,4.99-18.13,8.9-5.35,3.75-10.87,7.07-17.38,8.41-3.36.69-6.39,2.05-8.62,4.79-.42.51-.93.63-1.55.72-7.63,1.09-13.39-2.4-16.16-9.6-1.79-4.65-3.02-9.51-5.29-13.99-.74-1.46-1.63-2.54-3.35-3.01-3.21-.87-5.56.45-7.51,2.71-1.57,1.82-2.47,4.1-3.3,6.31-3.15,8.43-6.96,16.59-9.81,25.14-.31.69-.22,1.59-1.05,2.04-.73-1.14.31-1.47.87-2.01-.38-.81-.64-1.71-1.39-2.26-1.09-.81-1.31-1.39-.29-2.65,1.86-2.3.86-5.69-1.82-6.62-1.3-.45-1.27-.75-.54-1.81,1.53-2.22,1.22-5.08-.83-6.12-1.87-.95-1.6-3.12-3.04-4.23-.53-.41.2-.75.49-.98,2.26-1.79,2.67-4.27,1.82-6.7-1.9-5.44-2.83-10.94-2.65-16.72.09-3.02-1.94-4.26-5.03-4.21-4.75.07-9.58.63-14.2-1.11-4.37-1.65-7.51-4.53-9.22-9,.95-.31,1.51.21,2.09.44,15.07,6.05,30.73,9.57,46.9,10.6,15.52.99,30.91-.22,46.04-3.96,31.04-7.67,57.27-23.46,78.62-47.24,13.74-15.29,23.8-32.8,30.47-52.25.26-.75.42-1.51,1.28-1.97,3.62-1.93,7.15-4.01,10.79-5.89,2.93-1.51,4.73-3.81,5.44-6.97.81-3.59,1.03-7.25,1.31-10.9.73-9.5.5-18.99.07-28.5-.61-13.55-2.34-26.91-5.83-40.03-.34-1.28-.95-2.31-1.75-3.32-2.74-3.45-6.67-4.6-10.69-5.51-1.58-.36-2.41-1.02-3.05-2.62-11.6-29.14-30.31-52.66-56.1-70.5-14.35-9.93-30.05-17-46.87-21.57-1.59-.43-2.04-.63-.81-2.12,1.88-2.31,3.41-4.87,4.71-7.58,5.69-11.85,6.74-24.22,3.89-36.92-2.37-10.58-6.57-20.3-14.72-27.86-2.3-2.13-4.68-4.2-7.72-5.25-.66-.23-1.37-.42-1.88.17-.57.67.05,1.17.37,1.77,4.26,7.93,6.64,16.28,5.22,25.35-.92,5.86-5.22,7.36-9.86,3.57-.63-.52-1.22-1.11-1.78-1.71-4.08-4.37-6.57-9.58-7.7-15.4-.87-4.47-1.36-9.01-2.27-13.47-5.77-28.49-28.62-45.6-57.46-45.51-3.78.01-7.62.56-10.95,2.73-.62.4-1.39.86-1.31,1.69.08.83.86,1.13,1.61,1.31,1.97.47,3.48,1.72,4.86,3.08,1.97,1.94,3.79,3.99,5.52,6.11,3.99-.37,7.85-.09,11.72.54,10.6,1.7,20.12,5.39,27.96,12.25,8.56,7.51,13.25,16.78,15.19,27.31,1.07,5.81,1.4,11.77,4.46,17.16,1.88,3.31,4.11,6.37,7.28,8.78,6.18,4.7,13.22,2.76,14.77-4.1.33-1.48.45-3.01.5-4.51.15-4.26-1.05-8.33-2.37-12.37-.22-.68-.44-1.35-.78-2.4,3.46,2.53,6.08,5.25,7.99,8.4,9.09,15.02,11.25,30.47,3.07,46.45-1.35,2.64-3.19,5-5.16,7.28-.68.79-1.33,1.08-2.58.83-15.89-3.15-31.92-3.86-48.1-2.24-24.16,2.42-46.28,9.84-66.48,22.03-1.16.7-2.11.73-3.4.35-12.94-3.86-24.38-10.05-34.54-18.21-9.21-7.4-16.82-16-22.85-25.74-.14-.22-.26-.46-.4-.71.98-.55,1.5.21,2.14.52,9.56,4.57,19.63,7.47,30.52,7.51,3.46.01,6.92-.44,10.33-1.11.62-.12,1.47-.03,1.51-.78.03-.68-.79-.9-1.38-1.1-2.16-.73-4.37-1.38-6.53-2.11-20.93-7.04-33.61-20.86-39.73-39.95-1.03-3.2-1.39-6.58-2.06-9.87-.09-.39.06-.51.47-.35,4.48,6.24,11.03,9.65,18.84,11.42,6.69,1.52,13.26.49,19.85-.58,3.8-.62,7.62-.91,11.48-.29,2.14.34,4.04,1.03,5.64,2.35.76.62,1.52.77,2.29.1.64-.56.52-1.2,0-1.77-3.25-3.55-4.24-7.9-4.7-12.24-1.21-11.71,1.63-22.7,8.15-33.22.47,3.43.51,6.68,1.37,9.82,3.94,14.39,12.2,26.03,26.4,33.82,3.49,1.92,7.4,2.65,11.5,2.25,10.11-.98,13.54-9.84,12.55-15.9-.78-4.79-2.67-9.04-5.22-12.97,1,3,1.58,6.1,1.38,9.39-.33,5.42-4.28,10.14-9.52,10.96-4.15.65-7.99-.48-11.54-2.64-9.18-5.58-15.43-13.72-20.28-23.12-4.39-8.51-5.62-17.69-5.82-27.1-.02-.85.34-2-.73-2.39-1.1-.41-1.99.34-2.7,1.14-1.14,1.29-2.2,2.64-3.04,4.16-8.45,15.36-11.5,31.44-6.6,48.72-5.79-1.3-11.62-.77-17.45.4-5.93,1.2-11.88,1.49-17.72-.42-7.81-2.56-14.26-6.75-17.22-14.97-.65-1.8-.52-3.68-.92-5.5-.17-.77-.34-1.58-1.18-1.72-.99-.17-1.34.66-1.72,1.43-.7,1.42-1.18,2.86-1.35,4.46-.61,5.51.28,10.9,1.44,16.22,5.01,23.09,17.92,39.96,39.55,49.89.23.11.61.07.43.54-2.09.2-4.17-.06-6.22-.47-10.98-2.19-21.59-5.23-29.89-13.42-.55-.54-1.2-.96-1.98-.5-.71.42-.87,1.06-.74,1.91.43,2.76,1.37,5.35,2.7,7.78,10.9,20,26.05,35.78,46.22,46.58,4.71,2.52,9.58,4.66,14.58,6.51-38.16,30.14-59.94,68.88-61.86,117.64-1.92,48.7,16.58,89.08,52.25,122.03-9.17,6.42-17.15,14.2-24.8,22.32-3.94,4.18-8.04,8.28-10.73,13.47-.22.43-.54.7-.94.91-2.03,1.1-4.07,2.19-6.08,3.32-8.46,4.75-16.3,10.33-22.87,17.53-3.09,3.39-4.18,7.52-2.91,11.9,1.26,4.36,2.9,8.63,4.67,12.82,5.49,13.03,13.88,24.04,24.02,33.77,3.88,3.73,7.77,7.49,12.67,9.91,2.31,1.14,4.23,2.77,6.06,4.53,2.63,2.51,4.36,5.69,6.39,8.64,2.46,3.57,4.7,7.33,7.47,10.63,4.88,5.81,11.39,8.67,18.77,10.5,9.75,2.41,19.6,4.02,29.47,5.57,6.81,1.07,13.72,1.06,20.61.95.91-.01,1.87-.15,2.12,1.06,1.14,5.48,4.93,8.67,9.61,11.04,8.36,4.23,17.4,5.47,26.6,6.21,5.78.46,11.59-.09,17.34.87,1.1.18,2.21.36,3.32.44,10.06.78,20.06,2.01,29.99,3.75,14.7,2.58,29.36,5.22,44.33,5.73,18.39.62,36.76,1.48,55.17.05,12.64-.98,24.94-3.35,37.07-6.9,9.01-2.63,17.67-5.85,24.65-12.51,4.66-4.45,8.88-9.19,10.31-15.65,1.33-6.03-.13-11.45-4.62-15.85Zm-59.78-284.38c.43,3.53.65,5.29,1.08,8.82-3.15,1.24-4.72,1.85-7.88,3.01.38,3.24.57,4.85.96,8.09,2.99-1.11,4.49-1.68,7.47-2.85.43,3.53.64,5.29,1.07,8.81-3,1.18-4.5,1.75-7.5,2.86.42,3.53.63,5.3,1.04,8.83,3.37-1.25,5.05-1.89,8.41-3.22.43,3.52.65,5.29,1.08,8.81-4.91,1.94-7.37,2.87-12.3,4.64-2.02-17.37-3.03-26.06-5.05-43.43,4.66-1.67,6.98-2.54,11.62-4.38ZM15.96,45.59c-.4-.38-.61-1.08-.26-1.27.45-.23.65.42.74.86-.16.14-.32.27-.48.4Zm346.76,484.12c-.61,1.2-1.97,1.44-2.87,2.12-.5-.05-1.09-.08-.88-.53.57-1.24,1.84-1.65,2.99-2.15.38-.16.9.3.76.56Zm-25.63-12.26c.76-.65,1.43-.11,2.07.11,6.02,2.14,11.93,4.57,18.09,6.28,1.21.34,2.45.59,4.05.97-5.89,3.57-12.15,5.18-18.47,6.5-11.22,2.35-22.53,2.37-33.88,1.12-4.08-.45-8.19-.71-12.29-.97-4.75-.31-8.58,2.14-12.44,4.4-1.88,1.1-3.88,1.93-5.96,2.49-1.61.43-3.31.56-4.41-1.16-1.13-1.77.06-3.01,1.13-4.13,2.97-3.11,6.76-5.14,10.3-7.47.75-.5,1.63-.24,2.41-.08,4.8.95,9.52.79,14.42.2,8.16-.98,16.19-2.56,24.17-4.36,3.73-.84,7.69-1.28,10.8-3.92Zm19.55,15.61c-.28,1.32-1.86.93-2.41,1.62-.66.18-1.12-.1-1.03-.4.34-1.15,1.48-1.28,2.42-1.6.37-.12,1.14-.2,1.01.38Zm-5.54,1.88c-.6.84-1.57.8-2.34,1.15-.53.25-1.13.39-1.66,0-.09-.07-.09-.5,0-.56,1.11-.73,2.31-1.21,3.67-1.07.13.01.22.31.33.47Zm-6.33,1.28c-.12,1.22-1.34.8-2.09,1.02-.51-.04-1.39.21-1.31-.41.15-1.14,1.3-.93,2.13-1,.46-.03,1.33-.26,1.27.38Zm-6.06.81c-.35,1.13-1.58.36-2.14.91-.61-.12-1.44-.16-1.13-.78.42-.86,1.55-.47,2.35-.73.48-.16,1.05.2.92.6Zm-5.84.84c-.09.69-.9.62-1.56.63-.5-.08-1.33.02-1.22-.81.11-.79.95-.51,1.49-.52.54-.02,1.4-.17,1.29.7Zm-5.57.16c-.02,1.08-1.04.78-1.69.86-.57.08-1.46.03-1.37-.67.12-1.02,1.21-.43,1.81-.69.47.1,1.27-.23,1.26.5Zm-5.65.34c-.98.22-2.02.54-3-.56,1.23-.74,2.19-.9,3.14-.18.2.15.21.66-.14.74Zm-5.17-.65c-.07.75-.81.75-1.39.68-.54-.06-1.37-.05-1.23-.85.14-.8.97-.29,1.38-.48.54.15,1.31-.14,1.23.65Zm-5.31-.89c.07.09-.06.52-.17.54-1.06.3-2.08.31-3.28-1,1.51-.04,2.59-.6,3.45.46Zm-5.05-.09c.12.63-.64.31-.93.47-.8-.15-1.82.15-2.01-.91-.1-.56.61-.5,1-.47.76.05,1.76-.09,1.94.91Zm-5.13,0c-1.07.64-1.9,0-2.83-.33.13-.31.14-.39.19-.43.9-.76,1.81-.26,2.68.04.3.1.24.55-.04.72Zm-4.79-.6c-.29,1.22-1.63.47-2.42.92-.37.21-1.09-.05-.93-.56.31-.95,1.34-.7,2.08-.89.5.09,1.4-.03,1.27.53Zm-5.04,1.37c-.8.77-1.73,1.18-2.91.95.06-.34.04-.53.12-.61.7-.68,1.51-1.16,2.52-1.01.21.03.55.39.26.67Zm-4.39,2.05c-.06.68-2.74,2.12-3.24,1.84-.28-.16-.45-.54-.22-.75.82-.76,1.81-1.27,2.89-1.55.15-.04.41.33.56.46Zm-5.39,2.66c-.48,1.05-1.61.84-2.45,1.17-.42.16-1.13-.11-.96-.55.43-1.17,1.73-.79,2.63-1.15.32-.13.74,0,.79.54Zm-8.75,0c.5.63,1.87-.19,2.05,1.04.07.48-.55.66-.99.56-.75-.16-1.67-.17-1.92-1.11-.08-.29.35-.6.86-.5Zm-1.33-11.62c-.23.02-.6-.27-.37-.62.47-.71.8-1.62,1.81-1.71.29-.03.41.35.37.75-.49.6-.79,1.52-1.82,1.58Zm2.88-3.72c.44-.75.93-1.51,1.96-1.51.38,0,.43.31.4.68-.53.6-1,1.39-1.97,1.46-.32.02-.54-.38-.39-.63Zm50.04-16.69c1.92,1.71,4.4,2.44,6.56,3.82-.26.72-1.45.55-1.73,1.82,2.1-.11,4.29-1.84,6.05.56-2.38,1.64-5.34,2.06-8.11,2.73-8.62,2.08-17.32,3.88-26.13,4.96-5.61.69-11.18-.15-16.66-1.41-5.31-1.22-10.63-1.38-16-.35-2.34.45-4.28,1.58-6.29,2.74-5.97,3.48-11.48,7.55-16.48,12.32-6.94,6.61-11.76,14.42-13.41,24.05-1.09-.47-2.95.1-2.23-2.08.1-.31-.09-.58-.41-.69-.46-.15-.76.15-.79.52-.15,2.48-1.91,1.39-2.96,1.18-4.26-.84-8.2-2.65-12.23-4.18-8.19-3.1-15.65-7.67-23.49-11.46-1.88-.91-3.78-1.78-5.72-2.52-1.36-.52-2.92-.7-1.74-2.71-1.53-.5-1.22,1.29-2.3,1.29-.46-.93.23-1.69.52-2.41,5.14-12.46,12.88-23.2,22.07-32.95,3.08-3.27,6.36-6.33,9.86-9.16,2.76-2.22,6.01-3.37,9.28-4.51.27-.31.54-.62.81-.94,1.01-.6,1.85-1.52,3.09-1.68.11-.82.9-.64,1.36-.94.36-.92,1.36-1.06,1.86-1.6,2.56,2.63,5.07,5.14,9.46,3.03-.77,1.63-2.78,2.38-1.33,4.17,1.85,2.27,4.21,3.17,6.24,2.45,5.05-1.79,10.19-3.17,15.56-3.62.88-.57,1.84-.44,2.8-.32.75-.92,1.7-.44,2.64-.25-.9.18-1.81.36-2.71.54-.73.14-1.46.28-2.18.43-3.64.86-7.07,2.27-10.28,4.16-.93.54-2.16,1.22-2.13,2.4.03,1.28,1.52,1.43,2.42,2.04,2.6,1.74,5.11,1.84,8,.4,3.8-1.91,7.96-2.8,12.22-3.11,1.01-.64,2.16-.32,3.25-.44.87-.56,1.82-.4,2.77-.31,1.23,0,2.46,0,3.68,0-1.21.59-2.46.3-3.69.34-.73.39-1.5.63-2.34.44-1.03.15-2.06.29-3.1.44-2.85.69-5.41,1.97-7.75,3.74-1.02.77-1.32,1.76-1.16,2.94.16,1.14,1.25,1.05,1.99,1.47,2.73,1.55,5.13,1.06,7.89-.31,4.28-2.13,8.97-3.06,13.82-2.78.42.03.87-.02,1.26.1.26.08.83.11.62.58-.07.15-.64.09-.99.12-3.74.58-7.19,1.91-10.26,4.14-.9.66-1.84,1.51-1.71,2.72.14,1.25,1.48,1.25,2.36,1.75,2.53,1.44,4.68,1.14,7.18-.43,3.56-2.23,7.69-2.8,11.91-2.6-2.89,1.39-5.61,2.98-8.33,4.63-2.16,1.31-1.7,3.24-1.82,4.94-.06.84,1.5.84,2.28.59,1.16-.37,1.82-.51,2.52.85.5.98,2.1.89,2.73.15,3.66-4.25,8.66-5.85,13.78-7.24,5.45-1.48,11.01-2.61,16.29-4.68.57-.22.89-.27,1.36.15Zm-55.2,27.51c.62.65,1.01,1.51,1.45,2.23-.08.43-.35.64-.63.57-1.11-.29-1.36-1.2-1.39-2.19-.01-.37.26-.93.57-.6Zm.21-5.36c.15-.21.66-.15.72.18.18,1.1-.24,2.02-.86,2.81-.31-.12-.41-.13-.44-.17-.51-1.08-.04-1.98.58-2.82Zm-88.19-12.2c-.12-.38.39-.53.91-.54.75.47,1.78.81,2.03,1.94.08.37-.37.45-.62.35-.92-.39-1.99-.67-2.32-1.76Zm86.98-39.45c-1.65,2.32-3.66,3-6.68,2.82-8.13-.48-15.94,1.69-23.58,4.23-2.53.84-4.4.57-6.13-1.62,8.31-4.58,25.65-7.16,36.38-5.44Zm-31.53.71c8.06-5.29,16.45-8.78,26.3-9.08-1.72,2.04-3.83,3.39-4.73,5.71-.16.41-.65.26-1,.28-6.63.36-13.18,1.18-19.56,3.13-.2.06-.44-.02-1.01-.05Zm61.09,23.21c-1.78-.11-3.69.11-5.33-.44-7.46-2.49-14.75-2.08-21.77,1.23-2.59,1.22-4.73,1.26-7.16-.32,3.86-3.56,8.66-4.32,13.52-4.65,7.16-.49,14.12.73,20.9,3.03.35.12.82.12.72.63-.08.41-.5.55-.88.52Zm7.63,3.11c-2.01,1.13-4.1,1.89-6.46,1.5-6.34-1.03-12.36-.23-17.85,3.28-1.96,1.25-3.1-.67-4.72-1.02,9.04-6.32,18.96-5.52,29.02-3.76Zm-19.36-10.39c-10.44-2.29-20.59-.86-30.35,3.23-2.13.89-3.54-.04-5.15-.74-.98-.43-.18-.98.27-1.2,1.8-.87,3.6-1.8,5.49-2.46,10.88-3.83,21.86-3.98,32.92-.79.19.05.37.15.55.22-.6,2.07-1.7,2.19-3.72,1.74Zm-20.56-5.7c1.34-.41,2.2-.32,3.08,0-.83,0-1.66,0-3.08,0Zm8.81-1.52c-10.16-1.28-20.04.59-29.68,3.62-2.43.76-4.03.55-5.86-1.62,13.15-5.28,26.44-7.23,40.39-4.33-.99,2.47-2.54,2.62-4.86,2.32Zm39.03,17.03c3.27-1.7,5.98-.97,8.94,1.23-4.24,1.57-8.27,2.58-12.29,3.64-5.75,1.51-11.62,2.77-16.33,6.8-.8.68-1.65.8-2.65.39-1.03-.43-2.12-.69-3.27-1.06.21-1.23,1.3-1.56,2.11-2.1,3.63-2.44,7.71-3.86,11.91-4.93,3.98-1.01,7.95-2.09,11.59-3.98Zm-.63-1.55c-1.17.44-2.35.84-3.48,1.33-.66.28-1.22.14-1.58-.34-.44-.57.29-.84.55-1.18,1.91-2.45,1.97-2.44,4.51.19Zm-4.17-4.15c.04.06.08.13.09.19.12.53-3.64,4.14-4.2,4-1.13-.28-2.25-.6-3.46-.93.92-1.57,2.19-2.71,3.39-3.88.93-.9,3.59-.44,4.18.62Zm-9.65-2.79c1.03.6,2.57.31,4.2.46-1.13,1.37-1.93,3.04-3.5,3.02-1.45-.02-2.9-.98-4.6-1.63.96-1.51,1.46-3.27,3.9-1.86Zm-6.41-3.03c.88-1.1,1.77-.82,2.7-.09,1.21.94-.03,1.32-.44,1.87-1.15,1.52-2.17,3.38-4.67,1.74.61-1.34,1.54-2.41,2.42-3.52Zm-2.21-2.35c-1.08-.08-1.89-.1-2.68-.21-.71-.11-1.41-.32-2.09-.49,2.51-2.33,2.83-2.3,4.77.7Zm-6.1-6.43c.53-.35,1.06-.67,1.49.06.48.8,1.34,1.93.68,2.56-1.03.97-2.45,1.56-3.66,2.4-.67.47-2.14.07-3.4-.62,1.47-1.82,3.08-3.21,4.88-4.4Zm-.97-1.9c-1.98,1.98-2.29,1.98-7.47.01q4.62-2.58,7.47-.01Zm-3.1-3.95c-4.45.85-7.58,5.14-12.39,3.43,2.23-4.09,9.08-6.27,12.39-3.43Zm-5.55-3.33c-2.16.25-3.66,3.04-6.24,1.27,2.36-2.19,4.92-2.76,6.24-1.27Zm-2.81-3.47c.5.63-.17.85-.7.99-1.9.51-3.49,1.53-5.04,2.73-1.63,1.26-3.53.06-5.36.2,2.06-2.83,4.38-5.08,7.92-5.76,1.77-.35,2.39.87,3.18,1.85Zm-69.53-2.16c4.18-1.31,8.47-2.19,12.35-4.43,2.85-1.64,5.61-3.38,8.3-5.27,5.51-3.87,11.15-7.5,18.02-8.51,2.84-.42,5.65-.37,8.44.31.6.13,1.25.13,1.8.75-.68,0-1.24,0-1.8,0-.98,1.11.1,1.11.67,1.03,2.19-.32,3.38,1.12,4.72,2.43,2.44,2.4,4.94,4.74,7.46,7.16-.27.13-.39.22-.51.24-.56.1-1.45-.03-1.39.74.06.81.96.58,1.47.48,1.69-.34,2.8.41,3.96,1.98-5.89-.34-11.34.55-16.68,2.26-7.05,2.26-13.26,6.07-19.23,10.31-5.17,3.67-10.23,7.44-16.3,9.63-6.17,2.23-14.16-1.1-16.74-7.18-2.14-5.06.14-10.26,5.46-11.93Zm-39.68-17.11c.74-1.26.93-2.83,2.26-3.77,1.64-1.16,2.62-.95,3.51.88,1.99,4.09,3.13,8.5,4.73,12.74,2.4,6.37,6.77,10.57,13.39,12.37,2.02.55,4,.13,6.32-.23-.54,1.68-.59,3.18-.39,4.61.26,1.82-.17,2.3-2.09,2.24-7-.23-12.3-3.55-16.7-8.67-3.5-4.07-5.52-8.99-7.74-13.78-.71-1.54-1.51-2.98-2.88-3.9-1.2-.81-1.03-1.44-.42-2.49Zm-2.16,4.42c.66-1.21,1.11-.56,1.63-.05,2.13,2.11,3.01,4.96,4.22,7.56,3.34,7.17,7.78,13.22,15.1,16.78,2.97,1.44,6.09,1.97,9.33,1.75,1.62-.11,2.57.24,3.52,1.79,3.53,5.78,8.97,8.44,15.71,9.02-7.38,6.48-14.07,13.71-19.73,21.86-.61.89-.95,1-1.78.28-8.16-6.95-15.95-14.26-22.58-22.74-3.92-5.02-5.52-10.99-7.17-16.96-.22-.79-.26-1.66-.62-2.37-3.24-6.23-.53-11.57,2.39-16.93Zm19.43,58.33c.04.52-.25.74-.51.6-1.04-.52-2.04-1.16-2.54-2.27-.15-.34.37-.53.58-.48,1.22.31,1.96,1.18,2.48,2.15Zm-4.33-4.14c.05.13-.38.61-.47.58-.83-.29-1.6-.74-1.96-1.59-.18-.42.23-.62.59-.76.84.35,1.52.9,1.84,1.77Zm-3.92-3.89c.04.39-.14.64-.47.57-.99-.2-1.67-.87-2.06-1.76-.18-.41.34-.83.57-.75.94.33,1.5,1.12,1.96,1.94Zm-3.86-3.46c-.44-.04-.61,0-.72-.08-.88-.54-1.75-1.11-1.96-2.22-.02-.09.34-.39.45-.35,1.22.35,1.92,1.18,2.23,2.65Zm-3.79-5c-.12.32-.37.49-.66.28-.91-.65-1.69-1.43-2.02-2.53-.11-.36.11-.7.59-.7.49.06,2.25,2.52,2.1,2.96Zm-3.57-4.92c-1.37-.5-2.03-1.44-2.58-2.47-.18-.33-.18-.81.17-1.01.37-.21.69.06.88.42.49.94,1.48,1.63,1.52,3.06Zm-3.1-6.34c.09.25.01.71-.33.65-1.26-.21-1.37-1.35-1.68-2.29-.14-.41.11-.68.58-.91.71.7,1.09,1.62,1.43,2.54Zm-2.72-7.24c.7.79,1.16,1.67.75,3.09-1.16-.89-1.65-1.72-1.45-2.85.03-.15.41-.57.7-.24Zm3.31,39.61c1.86,0,3.55.64,4.92,1.86,5.05,4.47,8.95,9.96,13.18,15.28-4.24-.75-8.47-1.61-12.73-2.21-6.5-.91-12.95-1.94-19.29-3.66-1.68-.46-2.44-1.19-1.9-2.98,9.05,3.85,18.98,2.74,28.52,5.53-.4-1.48-1.22-1.43-1.89-1.63-4.54-1.33-9.25-1.58-13.91-2.22-3.91-.54-7.86-.9-11.48-2.67-.65-.32-1.49-.41-1.55-1.38-.06-1.08-.23-2.26,1.53-1.41,6.71,3.23,14.15,2.59,21.21,3.98.45.09,1.19.31,1.3-.43.11-.73-.63-.66-1.11-.77-4.59-1.11-9.38-.79-13.96-1.83-2.74-.62-5.37-1.73-8.07-2.54-1.6-.48-.83-1.63-.93-3.04,6.07,4.11,12.9,2.43,19.33,3.52-1.22-1.43-2.91-1.46-4.51-1.52-4.41-.16-8.82-.26-12.86-2.36-1.06-.55-2.24-1.09-1.53-2.79,4.97,2.45,10.28,3.25,15.75,3.26Zm-13.86-50.57c.5.67.41,1.23.06,1.84-.27-.57-.43-1.11-.06-1.84Zm-1.93-7.81c.32.09.43.36.35.71-.06.23-.02.66-.45.46-.2-.1-.36-.44-.41-.69-.06-.33.13-.58.5-.47Zm-12.76-29.25c1.27-.42,2.54-.86,3.81-1.28.62-.21,1.48-1.08,1.84-.02.23.67.3,1.81-.73,2.37-.54.29-1.63.28-1.41,1.1.29,1.09,1.31-.05,1.94.3.52,3.9.59,7.89,2.33,11.54.59.68.84,1.48.83,2.36.1,1.48-.84,2.54-1.88,3.12-4.92,2.77-9.72,5.9-15.79,5.43-5.21-.4-9.83-4.32-10.54-9.11-.98-6.59,1.41-10.79,7.21-13.01,4-1.53,8.34-1.48,12.38-2.81Zm-35.15-16.96c.12-.31.52-.27.72,0,.57.77.44,1.48-.26,2.14-.85-.59-.75-1.37-.46-2.14Zm-.62-3.71c-.05-.43-.08-1.06.51-.97.95.15.8,1.05.86,1.75-.07.46.15,1.27-.61,1.09-.84-.21-.68-1.17-.76-1.87Zm1.03,7.85c.04-.07.54,0,.58.11.4.98.33,1.96-.08,3.13-.37-.25-.47-.28-.49-.33-.33-.97-.61-1.94-.02-2.91Zm.59,5.4c.71-.07.66.68.79,1.14.13.46.02.89-.45,1.13-.77-.09-.62-.73-.75-1.19-.13-.47-.13-1.03.41-1.08Zm.37,5.77c.16.43.4.85.84,1.27.17-.49.27-.96.3-1.41.29.81.08,1.67-.06,2.57-.41-.06-.52-.04-.55-.08-.56-.73-.69-1.52-.54-2.35Zm.59,4.96c.15-.3.63-.34.77-.13.65,1,.47,2.02.11,3.02-.3-.02-.41,0-.44-.04-.69-.86-.96-1.82-.45-2.85Zm.99,4.91c.91.14.8,1.09.9,1.7-.01.68.05,1.62-.65,1.5-1.04-.19-.57-1.34-.74-2.08-.11-.5-.29-1.23.5-1.11Zm.71,5.28c.93-.25.74.69.9,1.14.17.48.1,1.01-.47,1.29-.73-.07-.68-.63-.73-1.11-.05-.48-.36-1.14.3-1.32Zm.98,4.5c1.06.25.58,1.37.86,2.06.19.47.08,1.25-.64,1.06-.95-.26-.64-1.36-.93-1.96-.09-.69.01-1.33.7-1.17Zm.32,4.99c.14-.27.53-.27.73,0,.62.82.6,1.67-.03,2.86-.8-1.08-1.21-1.9-.71-2.86Zm1.5,4.59c.8.74.65,1.59.28,2.67-1.05-.71-1.24-1.55-1-2.51.08-.3.49-.37.72-.16Zm.02-36.89c-.39-.58-.55-1.2-.26-1.93.56.35.66.89.77,1.43,2.24,4.87,6.02,8.28,10.72,10.94-5.79,3.98-6.92,9.71-6,15.81.99,6.52,5.79,9.95,12.15,12.02-3.43,1.12-6.37,1.91-9.33,2.66-1.61.41-1.82-.22-2.23-1.42-1.78-5.25-2.45-10.74-3.43-16.16-1.4-7.72-2.17-15.52-2.4-23.37Zm19.62,7.02c-3.52,1.68-6.52,2.27-9.94-.38-4.07-3.15-6.61-7.2-8.72-11.67-1.13-2.4-2.13-4.87-3.35-7.7,1.64.7,2.83,1.3,4.07,1.72,2.25.77,3.42,2.11,4.12,4.56,1.98,6.93,6.83,11.27,13.83,13.47Zm9.36-14.39c-.59-.83-1.59-1.14-2.32-1.79-.88-.45-1.73-.97-2.56-1.5-.97-.48-1.86-1.1-2.75-1.71-.67-.43-1.33-.88-1.96-1.36-3.36-2.18-6.48-4.66-9.62-7.13-2.46-2-4.77-4.18-7.14-6.29-2.27-2.81-5.13-5.09-7.29-7.99-4.75-5.48-8.67-11.54-12.54-17.66-.09-.13-.19-.24-.29-.35.11-.09.08.06.12.05,2.16,3.2,4.58,6.23,6.99,9.27,1.43,1.81,2.62,3.81,4.62,5.09,1.17.34,1.82-.33,2.36-1.21,1.01-1.65,1.99-3.32,3-4.98,1.07-1.75,1.26-1.78,2.37-.07,3.14,4.8,6.16,9.68,9.01,14.66,1.13,1.46,1.85,3.22,3.34,4.4,1.26.69,2.1.22,2.71-.95.48-.92.78-1.92,1.25-2.84.57-1.25.94-2.58,1.61-3.78.39-.71.67-.63.94.06.67,1.88,1.57,3.66,2.51,5.42.48.53.84,1.15,1.12,1.8.7,1.63,1.42,3.25,2.1,4.89.18.4.4.78.67,1.12,1.94,2.06,3.18,2.06,4.92-.05.71-.86,1.48-1.68,2.2-2.54.57-.75,1.26-1.39,1.92-2.05,1.05-1.01,1.57-2.42,2.61-3.44,1.25.01,1.12,1.57,2.11,1.89.4-.8.79-1.6,1.19-2.4.65-1.29,1.3-2.59,1.95-3.88.52-1.1,1.03-2.2,1.53-3.31-4.15,9.47-9.17,18.6-15.22,27.33-.5.71-.95,1.12-1.47,1.31Zm-1.5-19.42c.12-1.23.69-2.17,1.94-2.55,1.32-.4,2.24.18,3.07.96.09.29.21.55.2.94.05.57.07,1.15.38,1.65,0,0,0,0-.01.01-.71.44-1.11,1.16-1.59,1.8-.07.11-.18.2-.26.3-.74.17-1.44.59-2.22.35-.01-.06-.03-.1-.04-.17-.51-.94-1.02-1.88-1.24-2.93-.07-.13-.16-.24-.23-.36Zm71.47,22.37c-21.88,4.68-43.78,4.08-65.53-1.31-2.32-.57-2.32-.61-.9-2.67,3.47-5.04,6.61-10.2,9.45-15.49.42.88.38,1.96,1.16,2.68.51.61.71,1.38,1.07,2.07.42.79.84,1.59,1.19,2.41.27.57.41,1.19.69,1.75.27.51.63.92,1.2,1.09,1.04.24,1.98-.11,2.93-.45.96-.42,1.87-.94,2.83-1.36.92-.4,1.87-.73,2.76-1.18.18-.09.36-.17.53-.28.52-.29,1.04-.6,1.55-.92,1.81-1,3.64-1.95,5.53-2.79.66-.2.81.27.97.73.12.38.2.77.25,1.17.04.42.1.83.21,1.24.48,1.45.59,2.99,1.11,4.42.49.98.79,2.01.64,3.12.11,1.06.86,1.45,1.73,1.24,3.22-.78,6.57-1.18,9.37-3.2,4.72-2.39,9.9-3.67,14.64-5.99.94-.46,1.18.11,1.43.76.9,2.36,1.96,4.65,2.45,7.17.77,3.99,1.61,4.48,5.25,2.64,7.36-3.73,15.04-6.86,22.02-11.33.78-.5,1.1-.68,1.58.4.75,1.7,1.58,3.37,2.18,5.13-8.92,3.78-18.32,6.8-28.29,8.94Zm61.69-28.73c-.99-.12-1.78-.79-2.4-1.99-.37-.72-.99-1.31-1.47-1.97-.9-1.21-1.75-1.35-2.91-.2-5.17,5.11-11.47,8.79-17.04,13.49-1.41-3.93-3.31-7.47-4.98-11.11-.75-1.64-1.41-2.1-3.08-.73-6.16,5.09-12.91,9.37-19.32,14.17-1.88-4.13-3.69-8.2-5.58-12.24-.96-2.05-1.94-2.32-3.87-1.17-6.73,3.98-13.44,7.98-20.2,12-1.58-3.75-3.14-7.5-4.73-11.24-.73-1.71-1.47-3.42-2.29-5.09-.35-.72-.65-1.33-1.82-.55-4.65,3.08-9.43,5.97-14.16,8.93-.92.25-1.79.83-2.8.36-.16-.3-.32-.6-.48-.9-.41-.54-.17-1.41-.91-1.78-1.27-2.07-2.68-4.07-3.24-6.49,1.57-3.88,2.97-7.83,4.23-11.82.48.93,1.43,1.11,2.29,1.42,3.59,1.28,7.22,2.45,10.89,3.49,14.58,4.13,29.43,6.57,44.6,6.85,4.78.09,9.53-.36,14.27-.86,15.69-1.65,30.86-5.48,45.65-10.9.43-.18.86-.39,1.28-.59,1.4-.61,2.82-1.15,4.23-1.72,2.22-1.07,4.38-2.26,6.61-3.29.6-.31,1.17-.66,1.76-.99-7.45,9.42-15.59,17.8-24.53,24.93Zm-98.18-45.75c12.66,1.09,25.37,1.38,38.05.46,5.73-.42,11.08-2.71,15.56-6.5,4.86-4.12,10.23-3.65,15.79-2.05.42.12.86.26,1.22.51,5.77,4.08,12.24,3.72,18.7,2.77,11.49-1.69,22.96-3.61,34.06-7.16,4.67-1.49,9.25-3.24,14.05-4.93-1.45,8.76-3.72,17.03-6.51,25.18-.41,1.21-1,2.29-1.6,3.37-.09.07-.18.14-.27.2-1.85,1.31-3.69,2.63-5.67,3.74-.88.54-1.72,1.14-2.68,1.54-1.71.81-3.32,1.8-5.05,2.57-1.78.72-3.39,1.81-5.26,2.32-8.58,3.35-17.38,6-26.37,8.01-8.32,1.87-16.7,3.32-25.23,3.96-5.76.43-11.5.46-17.24.14-9.78-.53-19.34-2.83-29.03-4.09-6.55-1.2-12.8-3.45-19.1-5.54-.72-.24-.98-.71-1.02-1.34,1.92-6.7,3.48-13.54,4.6-20.55.27-1.74.5-2.81,3-2.6Zm-1.07-56.53c.35-2.81.9-5.17,1.67-7.1.76-1.93,1.7-3.38,2.82-4.37,1.12-.98,2.37-1.43,3.75-1.34,1.38.09,2.69.71,3.91,1.84,1.22,1.14,2.31,2.73,3.27,4.77.96,2.05,1.75,4.49,2.38,7.37.63,2.87,1.04,6.05,1.22,9.57.19,3.51.12,6.68-.21,9.51-.33,2.83-.88,5.23-1.64,7.18-.76,1.97-1.71,3.45-2.85,4.45-1.13,1.01-2.41,1.47-3.83,1.37-1.41-.09-2.74-.72-3.98-1.89-1.24-1.16-2.34-2.78-3.3-4.86-.96-2.07-1.74-4.56-2.36-7.45-.61-2.9-1-6.09-1.15-9.6-.16-3.51-.06-6.66.29-9.47Zm33.34-10.92c1.56,0,2.33-.02,3.89-.04,1.09,17.54,1.64,26.31,2.73,43.86-2.07.03-3.11.04-5.18.04-3.89-12.48-5.82-18.74-9.62-31.3h-.05c.7,12.49,1.06,18.73,1.76,31.22-1.59-.03-2.38-.06-3.97-.11-.96-17.54-1.44-26.31-2.4-43.85,2.12.07,3.18.09,5.29.13,3.7,12.24,5.57,18.35,9.35,30.53h.05c-.74-12.19-1.11-18.29-1.84-30.48Zm20.2,27.03c.38,1.7.84,3.17,1.38,4.4.54,1.23,1.14,2.18,1.8,2.84.66.67,1.35.97,2.05.92.81-.06,1.49-.52,2.06-1.39.56-.88.99-2.07,1.29-3.59,1.48,2.3,2.22,3.44,3.71,5.73-.57,2.67-1.38,4.67-2.46,6-1.07,1.34-2.23,2.04-3.46,2.13-1.4.1-2.73-.35-3.99-1.36-1.25-1-2.38-2.48-3.38-4.44-1-1.95-1.83-4.35-2.5-7.17-.67-2.83-1.12-6-1.36-9.51-.23-3.51-.21-6.7.08-9.57.28-2.88.78-5.33,1.49-7.38.71-2.04,1.61-3.64,2.69-4.78,1.09-1.14,2.31-1.76,3.68-1.86.5-.03,1.02.04,1.58.23.55.19,1.11.51,1.67.96.56.46,1.1,1.08,1.64,1.86.54.78,1.05,1.76,1.52,2.92-1.01,2.53-1.52,3.79-2.54,6.32-.47-1.13-1-1.98-1.6-2.56-.6-.58-1.27-.84-2-.79-.73.05-1.38.45-1.96,1.19-.57.74-1.04,1.75-1.41,3.04-.37,1.28-.63,2.8-.77,4.55-.14,1.75-.14,3.63,0,5.66.14,2.06.4,3.95.78,5.64Zm29.25,13.55c-1.89.26-2.83.38-4.72.61-2.05-6.82-3.07-10.24-5.09-17.08-.77.09-1.16.13-1.93.21.54,7.01.81,10.51,1.35,17.52-1.58.17-2.36.25-3.94.4-1.32-17.53-1.97-26.3-3.29-43.83,2.72-.26,4.07-.4,6.78-.71.89-.1,1.75.02,2.59.35.83.34,1.59.97,2.27,1.9.68.93,1.27,2.23,1.77,3.9.49,1.66.85,3.77,1.05,6.33.25,3.1.14,5.77-.33,8.02-.47,2.25-1.31,3.74-2.52,4.47,2.39,7.18,3.59,10.76,6.01,17.91Zm3.84-27.59c3.05-.47,4.58-.72,7.62-1.25.31,3.56.47,5.34.78,8.9-3.06.54-4.59.79-7.65,1.26.3,3.56.45,5.35.75,8.91,3.44-.53,5.15-.81,8.58-1.42.31,3.56.47,5.34.78,8.9-5.01.89-7.52,1.29-12.54,2.01-1.44-17.51-2.17-26.27-3.61-43.79,4.75-.68,7.12-1.05,11.86-1.89.31,3.56.47,5.34.78,8.9-3.21.57-4.82.83-8.04,1.33.28,3.26.41,4.9.69,8.16Zm39.85,18.89c-1.56.41-2.33.61-3.89,1-1.4-14.05-2.1-21.08-3.5-35.14-1.98.5-2.98.74-4.96,1.21-.33-3.41-.5-5.11-.83-8.51,5.48-1.3,8.22-2,13.68-3.52.35,3.4.53,5.1.88,8.5-1.98.55-2.97.82-4.95,1.34,1.43,14.05,2.14,21.07,3.56,35.12Zm-9.08,2.26c-1.76.42-2.64.62-4.4,1.01-.96-3.57-1.44-5.35-2.4-8.92-2.74.6-4.11.89-6.86,1.43-.25,3.82-.38,5.73-.63,9.56-1.73.34-2.59.5-4.31.81,1.52-18.06,2.25-27.1,3.64-45.2,1.27-.26,1.9-.39,3.17-.66,4.66,16.83,7.02,25.23,11.8,41.97Zm11.46-47.75c1.52-.43,2.28-.65,3.8-1.1,1.86,17.43,2.78,26.14,4.64,43.56-1.55.46-2.33.68-3.88,1.12-1.83-17.43-2.74-26.15-4.56-43.59Zm16.68,69.3c-.32.52-.23,1.45-1.11,1.4-.53-.03-.58-.63-.44-1.06.18-.54.37-1.15,1.09-1.08.52.08.73.3.46.74Zm2.42-6.22c-.28.92-.67,1.81-.98,2.72-.27.78-.65,1.29-1.6,1.06-1.69-.41-2.58.66-3.01,1.99-.41,1.26-.61,2.68.92,3.54.37.21.73.38.43,1.01-1.64,3.45-3.29,6.89-5.44,10.08,1-4.67,2.31-9.23,3.13-13.9.09-.51.3-1.03.27-1.53-.21-3.71,2.15-5.1,5.21-5.98,1.18-.34,1.37.03,1.07,1.01Zm3.45-70.24c-.82,18.37-1.26,27.56-2.21,45.91-1.24.41-1.86.61-3.1,1.01-4.73-16.5-7.07-24.78-11.69-41.37,1.73-.52,2.6-.79,4.33-1.33,2.95,10.88,4.43,16.31,7.42,27.15.02,0,.03,0,.05-.02.48-11.98.71-17.97,1.14-29.95,1.62-.55,2.43-.83,4.05-1.4Zm-29.92-75.55c1.18,1.43,2.21,2.96,3.33,4.43.01,0,.02,0,.03,0,1.78.03,3.3,1.41,3.21,2.98-.02.41-.12.73-.23,1.03,8.25,11.6,14.76,24.18,19.51,37.75.55,1.57.57,2.44-1.3,3.07-3.33,1.13-6.61,2.46-9.8,3.93-1.68.77-2.19.57-2.65-1.29-2.95-11.84-6.64-23.47-11.15-34.81-4.13-10.41-9.05-20.44-14.97-29.97-.52-.84-1.02-1.71-1.52-2.57,5.89,4.52,10.89,9.82,15.54,15.45Zm-141.14-51.05c12.52-2.39,25.18-3.18,37.88-2.22,26.05,1.97,49.92,10.28,71.79,24.65,7.28,4.78,12.79,10.72,17.15,18.25,10.21,17.63,17.42,36.43,22.92,55.96.7,2.47,1.26,4.99,2.02,7.44.35,1.14.22,1.67-.98,2.12-11.88,4.47-24.1,7.52-36.63,9.48-10.7,1.68-21.44,3.06-32.19,4.28-18.5,2.1-37.07,3.02-55.69,2.04-2.06-.11-4.13-.19-6.2-.27-1.25-.05-1.82-.41-2.01-1.91-3.35-26.59-8.97-52.6-19.79-77.29-5.65-12.89-12.48-25.03-21.89-35.94,7.89-2.99,15.68-5.08,23.61-6.6Zm-89.54,234.51c-14.47-18.84-23.71-39.99-28.01-63.35-2.53-13.75-3.39-27.64-1.55-41.44,7.69-57.7,38.25-98.37,91.65-121.73,1.63-.71,2.56-.42,3.69.95,11.34,13.68,18.93,29.4,25.06,45.91,6.5,17.51,10.65,35.61,13.37,54.06.54,3.64,1.06,7.29,1.65,10.92.2,1.23-.01,1.69-1.42,1.56-15.49-1.43-30.83-3.74-46-7.21-4.27-.98-8.98,2.37-9.23,6.8-.35,6.2.41,12.39.43,18.59,0,1.77,0,3.55,0,5.32.42,13.52-.36,27.03-.52,40.54-.05,4.05-.55,8.09-.39,12.16.15,3.78,3.44,8.21,7.2,8.77,5.32.8,10.47,2.27,15.73,3.3,10.7,2.1,21.47,3.63,32.32,4.69,1.8.17,1.81.66,1.56,2.2-2.21,13.63-5.94,26.64-11.17,39.06.57-1.36,1.11-2.72,1.51-4.15-.3-.75-.5-1.55-1.02-2.2-.29-.43-.59-.84-.83-1.3-.48-.85-.92-1.74-2.13-1.66-1.02.34-1.67,1.26-2.64,1.68-1.33.77-2.64,1.55-3.13,3.15-.08.61.19,1.16.35,1.72.36,1.23-.13,2.17-1.08,2.9-1.01.78-2.04.71-3.04-.07-.35-.27-.65-.61-1.13-.65-.61.22-.89.82-1.39,1.17-.94.73-1.25.07-1.6-.69-1.36-2.98-2.72-5.97-3.86-9.04-.44-1.17-1.13-2.24-1.45-3.47-.18-.5-.32-1.02-.49-1.53-.69-1.49-.7-3.28-2.01-4.49-.97-.43-1.7-.02-2.36.66-.26.31-.46.67-.68,1.01-.17.24-.34.47-.49.72-.21.33-.42.65-.64.96-.97,1.29-1.67,2.76-2.62,4.07-.71,1.1-.99,2.48-2.05,3.47-.81-.62-1.08-1.42-1.41-2.15-3.03-6.68-5.98-13.39-8.77-20.17-1.09-2.65-2.25-2.94-4.2-.82-1.98,2.14-3.82,4.42-5.32,6.94-.74,1.23-1.38,1.46-2.2.03-2-3.51-4.03-7-5.71-10.69-2.45-5.38-5.07-10.68-7.66-15.99-1.16-2.38-2.29-2.54-4.41-.89-1.24.96-2.46,1.96-3.89,2.66-1.27.72-1.34-.33-1.57-1.09-1.71-5.5-3.25-11.05-4.59-16.66-1.38-5.45-2.25-10.99-2.6-16.15,1.92,4.02,4.57,8.02,7.57,11.82,8.99,11.18,19.1,21.19,30.65,29.73,6.81,5.03,14.01,9.45,21.27,13.78,3.04,1.61,6.03,3.31,9.12,4.84,2.57,1.33,5.27,2.36,7.88,3.61.81.18,1.45.69,2.14,1.1q3.16-.93,5.16,1.92c.04.06.12.08.19.11.98.31,1.91.72,2.87,1.09,1.14.34,2.13.95,3.04,1.7.42-1.51.84-3.02,1.26-4.53-.52-.74-1.39-.88-2.14-1.24-.39-.17-.77-.36-1.17-.51-9.95-3.85-19.61-8.29-28.77-13.79-1.11-.62-2.19-1.28-3.31-1.88-5.02-3.07-9.88-6.39-14.67-9.81-11.46-8.51-21.53-18.47-30.43-29.62-1.72-2.36-3.61-4.6-4.97-7.21-1.52-2.56-3.1-5.08-4.06-7.93-.78-1.46-.95-3.15-1.74-4.61-.87-.97-.8-2.76-2.57-2.95-1.15,1.82-.65,4.03-1.39,5.95-.23,1.23-.15,2.49-.49,3.71-.26,1.28-.08,2.58-.16,3.86.29,2.14.44,4.29.62,6.44.19.7.35,1.4.34,2.13.02.84.36,1.62.41,2.45.34,3.09,1.35,6.05,1.91,9.09.24,1.03.65,2.01.85,3.05,1.27,4.41,2.24,8.9,3.69,13.25,1.07,2.17,1.21,4.62,2.08,6.85.42,1.38.99,2.71,1.58,4.03.73,1.94,1.71,3.79,2.2,5.82,1,2.46,1.77,5.02,3.18,7.29.71,1.06,1.25,2.22,1.79,3.37,1.39,2.98,2.5,6.1,4.48,8.77,3.48,5.82,7.27,11.42,11.72,16.56,1.08.91,1.83,2.12,2.76,3.16.49.48.97.96,1.45,1.45.5.48.97.98,1.45,1.48,2.97,3.11,6.13,6.03,9.33,8.9,2.4,1.85,4.84,3.66,7.34,5.38-24.52-9.96-45.17-25.48-61.69-46.99Zm96.1-46.39c-1.6-.21-2.4-.32-4-.54-.52-14.1-.78-21.15-1.3-35.25-2.04-.29-3.06-.44-5.09-.75-.12-3.41-.18-5.12-.29-8.53,5.63.87,8.44,1.26,14.06,1.91.14,3.42.21,5.12.35,8.54-2.03-.24-3.05-.36-5.09-.63.54,14.1.82,21.15,1.36,35.26Zm-20.31-29.75c3.11.57,4.67.84,7.78,1.34.12,3.56.18,5.34.3,8.9-3.12-.51-4.69-.78-7.81-1.35.11,3.56.16,5.34.27,8.9,3.51.64,5.26.94,8.77,1.5.12,3.56.18,5.34.3,8.9-5.12-.82-7.68-1.27-12.81-2.26-.49-17.49-.74-26.23-1.23-43.72,4.84.94,7.27,1.37,12.1,2.15.12,3.56.18,5.34.3,8.91-3.28-.53-4.92-.81-8.21-1.41.1,3.26.15,4.89.24,8.15Zm-10.28,1.78c.6.33,1.15.84,1.65,1.54.5.7.93,1.55,1.31,2.54.38,1,.67,2.13.89,3.41.22,1.27.35,2.61.39,4,.06,2.31-.09,4.19-.46,5.65-.37,1.46-.87,2.6-1.49,3.41-.63.81-1.34,1.34-2.15,1.58-.8.24-1.61.27-2.41.09-2.98-.66-4.47-1-7.46-1.71-.36-17.46-.54-26.19-.9-43.65,2.66.64,3.99.94,6.65,1.53.78.17,1.55.48,2.34.91.79.43,1.5,1.12,2.14,2.05.64.94,1.18,2.16,1.6,3.68.42,1.52.67,3.47.73,5.86.07,2.47-.17,4.46-.69,5.97-.53,1.51-1.25,2.51-2.16,3.01,0,.05,0,.08,0,.13Zm-40.06,109.55c-.83.74-1.71.57-2.86-.04.97-.9,1.84-1.04,2.77-.71.27.1.32.54.09.75Zm-8.12-4.77c1.84-1.6,3.31-1.5,4.69.73-2.93.47-5.72,1.25-8.64,2.07,1.33-.92,2.74-1.74,3.96-2.8Zm4,5.11c-.09.71-.8.73-1.75.68-.12-.01-.88.22-.78-.55.08-.64.82-.74,1.42-.77.51-.03,1.2-.09,1.11.64Zm-4.45.74c-.18,1.09-1.3.74-1.9,1.14-.44.09-.92,0-.87-.42.14-1.19,1.35-.82,2.04-1.21.3-.17.81,0,.73.49Zm-5.74.72c.36-.03.74.05.75.59-.33.65-.96.82-1.62.89-.46.05-.73-.28-.59-.67.23-.64.86-.76,1.46-.81Zm-26.81,26.34c.3-.89.81-1.83,2.13-1.4,4.25,1.39,8.54,2.68,12.4,5.06,7.41,4.58,14.56,9.46,20.09,16.34.33.41.7.94,1.26.4.61-.59.05-1.1-.31-1.54-3.77-4.61-8.24-8.46-13.14-11.8-6.25-4.26-12.62-8.27-20.27-9.7,1.24-2.41,1.27-2.48,3.57-1.68,10.59,3.7,19.99,9.31,27.82,17.43.41.42.8,1.13,1.44.64.67-.51.08-1.07-.27-1.53-1.15-1.49-2.58-2.7-4.02-3.9-7.71-6.44-16.25-11.39-25.91-14.45.72-1.44,1.69-1.75,3.27-1.29,8.87,2.57,16.46,7.32,23.25,13.46.44.4.78,1.43,1.54.75.71-.64-.12-1.25-.56-1.66-6.14-5.71-13.04-10.2-21.02-12.91-.85-.29-1.69-.59-2.53-.89-.49-.09-1.56.13-1.24-.55.44-.94,1.48-.34,2.24.02,6.99.81,13.07,3.74,18.65,7.92,3.01,2.26,5.57,4.92,7.92,7.82,1.67,2.06,2.93,4.35,3.35,6.97.88,5.44,1.61,10.9,2.4,16.36.43.45.47,1,.37,1.59-.71,0-.76-.56-.92-1.03-8.11-11.03-18.05-19.89-30.53-25.73-3.11-1.45-6.34-2.58-9.61-3.62-.53-.17-1.8.2-1.36-1.08Zm-31.26,24.08c.19.19.38.39.57.58-.27.47-.84,1.03-1.15.71-.5-.5.14-.96.59-1.3Zm10.11,29.83c-.7-1.56-1.1-3.24-1.11-4.99-.02-3.79,1.82-5.63,5.63-5.57,2.68,0,5.16.89,7.47,2.09,12.6,6.55,21.99,16.28,28.35,28.95,1.11,2.21,1.78,4.57,1.87,7.08.14,3.89-2.2,6.02-6.07,5.44-1.77-.26-3.55-.61-5.16-1.39-14.09-6.84-24.56-17.26-30.97-31.61Zm29.53,33.32c.79-.38,1.41-.22,2.11,0,1.27.41,2.58.78,3.89,1,5.16.87,8.45-2.21,7.99-7.4-.3-3.34-1.48-6.4-3.1-9.27-6.37-11.25-15.1-20.17-26.44-26.46-2.95-1.64-6.07-2.92-9.51-3-4.56-.11-7.4,3.12-6.77,7.65.22,1.54.57,3.06.86,4.58-1.62-2.85-3.54-5.4-4.02-8.71-.92-6.3,2.79-10,9.08-8.75,7.55,1.51,13.81,5.56,19.66,10.24,9.5,7.6,17.48,16.52,22.97,27.5,1.38,2.75,2.33,5.64,2.85,8.68.93,5.53-1.9,8.71-7.46,8.33-4.41-.3-8.29-2.08-12.11-4.41Zm9.81,9.62c1.15.34,2.08.62,3.22.96-1.7,1.66-2.34.36-3.22-.96Zm12.68,16.11c-1.71-1-2.91-2.47-4.06-3.96-1.14-1.46-2.23-2.97-3.27-4.51-.27-.4-1.1-.8-.47-1.46.45-.47,1.04-1.07,1.59-1.1.54-.03.59.87.81,1.39,1.24,2.96,2.98,5.63,4.87,8.21.27.37.89.62.53,1.43Zm1.89-.72c-.37-.44-.96-.74-.95-1.43-.84-.29-1-1.11-1.37-1.78,1.09.08,1.39.97,1.82,1.72.45.42,1,.77,1.03,1.48,2.62,1.92,4.81,4.39,7.71,5.96-3.95-.33-6.21-2.99-8.24-5.95Zm8.7,6.58c1.14-.36,1.67.37,2.32.77-.8.12-1.52-.08-2.32-.77Zm3.67-.61c-.5.86-1.38,0-1.92-.32-4.52-2.72-8.65-5.91-11.5-10.44-1.35-2.14-2.48-4.41-3.63-6.67-.49-.97.57-2.66,1.55-2.57.59.27.6.93.84,1.45,2.53,5.56,5.69,10.67,10.47,14.6.97.8,2.03,1.5,3.04,2.26.59.44,1.56,1,1.15,1.7Zm10.12,3.75c-1.84-.3-4.16-.2-5.32-1.29-1.19-1.12-.17-3.5-.32-5.32-.03-.44,0-.89,0-1.98,4.2,4.06,8.7,6.78,13.3,9.63-2.55-.34-5.11-.63-7.65-1.04Zm15.43,2.43c-1.11-.17-2.26-.2-3.31-.54-1.14-.37-3.04.31-3.05-1.94,0-.2-.57-.43-.89-.59-4.93-2.4-9.36-5.55-13.58-9.02-.33-.27-.58-.83-1.08-.6-.59.26-.41.9-.42,1.4-.04,1.87-.02,3.74-.1,5.61-.03.57.37,1.53-.69,1.59-.97.05-1.2-.59-1.04-1.51.24-1.41-.42-2.39-1.59-3.18-6.42-4.29-10.63-10.35-13.77-17.27-.33-.73-.49-2.17-1.66-1.47-1.17.7-3.28.9-2.86,3.1.49,2.61,1.94,4.81,3.19,7.1.26.48.76.9.58,1.96-1.97-2.13-3.07-4.45-4.07-6.76-.79-1.82-1.6-2.48-3.18-.92-1.03,1.02-1.54.45-2.19-.47-1.03-1.47.43-1.34,1.02-1.7.82-.5,1.71-.89,2.58-1.31.43-.2.84-.43.73-.97-.13-.63-.69-.43-1.09-.42-1.95.04-3.84-.04-5.67-.92-1.4-.67-2.45-1.63-3.47-2.96,1.54-.61,2.92.22,4.28.4,7.18.97,11.25-3.22,9.88-10.36-1.21-6.28-4.19-11.78-7.84-16.91-7.81-11-17.28-20.2-29.27-26.6-3.03-1.62-6.2-2.88-9.65-3.4-6.67-1-9.97,1.61-10.46,8.95-2.03-4.78-4.08-8.99-4.94-13.6-.42-2.28,3.45-5.39,6.45-5.47,3.11-.09,6.06.75,8.89,1.95,13.33,5.64,24.88,13.85,34.98,24.18,4.73,4.84,8.67,10.24,12.23,15.99,2.63,4.25,5.74,8.2,7.66,12.87.8,1.96,1.2,3.93,1.12,6.09-.29,7.45,3.33,13.35,7.88,18.76,6.91,8.23,15.73,13.88,25.34,18.42.67-.14.98.43,1.73.68-1.15.44-1.93.34-2.67-.16Zm27.81-11.53c-.64,2.13-1.36,4.24-1.94,6.39-.24.89-.65,1.09-1.54,1.11-13.6.23-25.45-4.31-35.79-13.02-4.31-3.63-8.3-7.53-11.17-12.45-.96-1.64-1.93-3.39-1.72-5.24.83-7.14-1.92-13.22-5-19.37-5.08-10.14-12.41-18.49-20.41-26.28-8.71-8.49-18.41-15.71-29.22-21.39-2.52-1.32-5.05-2.59-7.8-3.36-2.71-.76-5.44-1.46-8.81-1.46,6.59-5.77,13.74-9.67,20.71-13.85,2.3-1.38,4.3-1.32,6.67-.46,22.34,8.13,37.55,23.47,46.24,45.49,3.64,9.22,5.5,18.9,7.63,28.53,1.68,7.56,3.88,15.02,9.91,20.42,6.04,5.41,13.23,8.9,20.91,11.34,3.47,1.1,6.99,2.17,10.65,2.48,1.03.09.86.54.68,1.13Zm-15.72-20.95c-5.16,1.28-10.34,2.31-15.68,2.16-1.3-.04-1.3-.09-2.17-1.38.12-.38.45-.24.71-.28.61-.09,1.61.32,1.64-.63.04-.93-.95-.76-1.57-.72-1.66.11-2.55-.69-3.21-2.16-2.36-5.29-3.85-10.84-4.88-16.49-1.77-9.73-4.58-19.13-8.47-28.37.5-.06.84-.11,1.18-.14.58-.05,1.36,0,1.28-.81-.06-.61-.77-.62-1.3-.55-1.38.18-2.34-.21-2.59-1.71-.48-.38-.73-.87.09-.98.6-.08,1.26.23,1.89.36,7.56.57,15.1.68,22.54-1.17,4.55-1.13,9.07-2.4,13.42-4.2,1.36-.56,3.25-1.5,4.25-.99,2.62,1.34,3.19-.84,4.61-1.84,4.52-3.2,4.73-2.78,5.78,2.63,1.5,7.75,3.13,15.5,5.8,22.98.34.96,1.74,1.23,1.43,2.36-.61,2.2-1.37,4.35-2.24,7.09-1.87-5.2-3.56-9.83-5.21-14.49-1.12-3.16-2.31-6.3-3.24-9.51-.58-2-1.68-2.27-3.32-1.59-7.48,3.14-15.44,4.5-23.3,6.16-3.87.82-7.87.81-11.84.8-2.53-.01-3.07.65-2.43,3.14,1.05,4.12,2.03,8.26,3.5,12.27.75,2.03,1.95,3.02,4.14,2.98,1.94-.03,3.85.62,5.81.38.89-.11,1.11.47,1.39,1.13.8,1.85,1.86,3.61,2.46,5.52.77,2.47,2.32,3.04,4.69,2.87,3.16-.22,6.23-.71,9.12-2,.93-.41,1.53-.51,1.88.58.7,2.16,2.33,1.96,4,1.56,3.6-.88,7.11-2.02,10.74-3.94-.9,2.36-.2,4.98-2.86,6.19-.43.2-.46.73.14,1.02,1.3.63,1.41,1.38,0,2.28-5.79,3.66-11.32,7.82-18.16,9.51Zm19.54-20.96c-3.2,1.65-6.67,2.49-10.05,3.6-.94.31-1.38-.12-1.71-.9-.79-1.81-2.09-2.07-3.82-1.34-3.06,1.3-6.31,1.62-9.57,2.01-.97.11-1.15-.3-1.44-.91-1.01-2.15-2.09-4.28-3.03-6.46-.66-1.55-1.62-2.14-3.39-2.27-9.07-.64-6.84.93-9.36-7.16-.64-2.05-1.19-4.13-1.86-6.48,2.04,0,3.93,0,5.83,0,8.11-.7,15.89-3.03,23.75-4.97,2.03-.5,4.05-1.03,5.79-2.25.8-.56,1.21-.6,1.57.47,2.66,7.96,5.37,15.91,8.06,23.86,1.15,1.32.67,2.07-.76,2.81Zm216.84,65.06c-9.6,7.29-20.61,11.19-32.41,13.01-10.93,1.69-21.93,2.86-33,3.12-4.48.11-8.98-.13-13.45-.45-6.71-.49-13.44-.54-20.15-1.22-9.74-.99-19.33-2.74-28.89-4.75-6.48-1.36-12.97-2.91-19.58-3.42-9.68-.75-19.28-2.2-28.95-3.02-8.78-.74-17.54-1.66-26.13-3.71-6.38-1.53-11.53-5.08-15.94-9.81-.98-1.05-1.19-2.11-.92-3.65.9-5.12,3.44-9.66,4.84-14.59.31-1.11,1.02-1.8,2.68-1.33,7.98,2.23,16.24,3.05,24.38,4.46,9.74,1.69,18.77,5.16,27.36,9.94,8.48,4.72,17.25,8.88,26.61,11.43,7.55,2.06,15.38,2.88,23.13,3.95,18.77,2.57,37.59,2.02,56.44,1.03,12.85-.68,25.65-1.59,38.26-4.19,8.01-1.65,15.86-3.92,24.01-6.7-1.93,4.3-4.9,7.33-8.29,9.9Z"/><path class="cls-1" d="m117.09,297.16c-.33-.4-.69-.71-1.06-.91-.38-.2-.73-.34-1.05-.41-1.2-.26-1.81-.4-3.01-.68.09,3.97.13,5.96.22,9.93,1.44.33,2.15.49,3.59.8.31.07.61.05.93-.05.31-.09.59-.33.84-.68.24-.35.44-.84.59-1.47.14-.62.2-1.41.18-2.35-.03-1.03-.15-1.88-.38-2.57-.23-.68-.51-1.22-.84-1.62Z"/><path class="cls-1" d="m119.08,18.37c-1.8.17-3.61.43-5.47.92,2.67,1.66,4.7,3.49,6.61,5.43,3.22,3.26,6.17,6.64,8.55,10.31-.45-1.35-.96-2.69-1.57-4.01-2.15-4.62-4.94-8.78-8.12-12.65Z"/></g></svg>