<?xml version="1.0" encoding="UTF-8"?><svg id="_レイヤー_2" xmlns="http://www.w3.org/2000/svg" viewBox="0 0 229.65 315.36"><defs><style>.cls-1{fill:#fff;}</style></defs><g id="_レイヤー_1-2"><path class="cls-1" d="m2.78,243.11h113.02v20.61h-35.71c1.86,2.47,3.18,5.01,3.96,7.63.78,2.62,1.17,5.28,1.17,8,0,4.98-.94,9.66-2.83,14.04-1.89,4.38-4.48,8.19-7.78,11.44-3.3,3.25-7.15,5.81-11.55,7.7-4.41,1.89-9.1,2.83-14.08,2.83H2.78v-20.76h46.2v.15c2.11,0,4.11-.4,6-1.21,1.89-.8,3.54-1.91,4.94-3.32,1.41-1.41,2.52-3.04,3.32-4.91.8-1.86,1.21-3.85,1.21-5.96s-.4-4.21-1.21-6.12c-.81-1.91-1.91-3.57-3.32-4.98-1.41-1.41-3.06-2.52-4.94-3.32-1.89-.8-3.89-1.21-6-1.21H2.78v-20.61Zm56.88-28.94c-1.58,1.52-3.43,2.76-5.51,3.76l10.39,18.26c3.86-1.96,7.28-4.38,10.22-7.3,3.75-3.72,6.64-8.09,8.68-13.1,2.04-5.01,3.06-10.38,3.06-16.12s-1.08-11.03-3.25-16.04c-2.16-5.01-5.15-9.39-8.95-13.14-3.8-3.75-8.32-6.71-13.55-8.87-5.24-2.16-10.92-3.25-17.06-3.25s-11.66,1.08-16.87,3.25c-5.21,2.16-9.71,5.12-13.51,8.87-3.8,3.75-6.79,8.13-8.98,13.14-2.19,5.01-3.28,10.35-3.28,16.04s1.09,11.11,3.28,16.12c2.19,5.01,5.18,9.38,8.98,13.1,3.06,3,6.6,5.47,10.58,7.46l9.87-18.19c-2.3-1.03-4.31-2.35-5.99-3.98-1.91-1.86-3.4-4.04-4.45-6.53-1.06-2.49-1.59-5.15-1.59-7.96s.57-5.47,1.7-7.96c1.13-2.49,2.68-4.66,4.64-6.49,1.96-1.84,4.28-3.28,6.95-4.34,2.67-1.06,5.56-1.59,8.68-1.59,3.32,0,6.33.53,9.02,1.59,2.69,1.06,5.01,2.5,6.95,4.34,1.94,1.84,3.42,4,4.45,6.49s1.55,5.14,1.55,7.96-.52,5.47-1.55,7.96-2.52,4.67-4.45,6.53ZM229.65,46.2v15.48h-20.53v-15.48c0-2.22-.39-4.27-1.17-6.15-.78-1.89-1.86-3.52-3.25-4.91-1.38-1.39-3.02-2.48-4.91-3.28-1.89-.81-3.94-1.21-6.15-1.21h-3.85v42.29h-1.05v.03h-43.2c-2.11,0-4.11.4-6,1.21-1.89.8-3.54,1.91-4.94,3.32-1.41,1.41-2.52,3.07-3.32,4.98-.8,1.91-1.21,3.95-1.21,6.12s.4,4.1,1.21,5.96c.81,1.86,1.91,3.5,3.32,4.91,1.41,1.41,3.06,2.52,4.94,3.32,1.89.8,3.89,1.21,6,1.21h11.53v-.16s15.77-.32,27.76,15.25c1.8,2.34,3.14,5.01,4.23,7.81,1.11,2.86,1.82,5.82,2.17,8.86.31,3.04.28,6.34-.19,9.94-.45,2.88-1.21,5.67-2.36,8.34-1.89,4.38-4.48,8.2-7.78,11.48-3.3,3.27-7.15,5.85-11.55,7.74-4.41,1.89-9.1,2.83-14.08,2.83h-46.2v-20.61h46.2c2.11,0,4.11-.4,6-1.21,1.89-.8,3.54-1.91,4.94-3.32,1.41-1.41,2.52-3.04,3.32-4.91.8-1.86,1.21-3.85,1.21-5.96s-.4-4.2-1.21-6.12c-.81-1.91-1.91-3.57-3.32-4.98-1.41-1.41-3.06-2.52-4.94-3.32-1.19-.51-2.55-.85-3.39-1.04h-12.34c-4.98,0-9.68-.94-14.08-2.83-4.4-1.89-8.25-4.47-11.55-7.74-3.3-3.27-5.89-7.1-7.78-11.48-1.15-2.67-1.91-5.46-2.36-8.34-.47-3.6-.51-6.9-.19-9.94.35-3.04,1.06-6,2.17-8.86,1.09-2.81,2.52-5.4,4.23-7.81,8.67-11.67,19.75-14.51,27.59-15.25,2.27-.21,9.12,0,9.12,0h16.56v-21.71h-60.32v-.05h-27.19v31.26h-20.53v-31.26h-24.01c-2.16,0-4.19.4-6.08,1.21-1.89.8-3.54,1.91-4.94,3.32-1.41,1.41-2.33,3.17-3.36,4.98-3.57,6.25-3.25,14.32-3.25,14.32.49,9.36,3.24,16.13,6.78,22.23,3.37-1.27,6.95-2.12,10.75-2.51,5.61-.58,11.41.03,17.39,1.82,6.12,1.84,11.4,4.55,15.85,8.14,4.44,3.59,7.91,7.72,10.4,12.38,2.49,4.66,4.01,9.69,4.54,15.08.54,5.39,0,10.81-1.64,16.26-.97,3.23-2.3,6.27-4,9.13-1.7,2.85-3.68,5.45-5.96,7.79-2.28,2.34-4.83,4.4-7.65,6.18l-.08.05c-4.57,2.88-10.61,1.59-13.6-2.91l-27.51-41.37c-.62-.93-2.02-.79-2.45.25-.3.75-.57,1.51-.8,2.28-.58,1.93-.87,3.86-.87,5.81,0,1.94.25,3.85.77,5.71.52,1.86,1.15,3.73,2.36,5.28,3.41,4.34,5.41,6.34,8.84,8.42l-8.87,17.11c-10.56-5.18-17.56-13.18-20.12-19.43-1.25-3.05-2.34-6.12-2.96-9.32-.62-3.21-.84-6.45-.67-9.74.17-3.29.74-6.54,1.71-9.77,1.63-5.45,4.18-10.27,7.64-14.46.77-.93,1.58-1.82,2.41-2.67l-.47-.76C4.61,74.66,1.04,62.24,1.04,49.57v-3.34c0-4.98.94-9.66,2.83-14.04,1.89-4.38,4.48-8.22,7.78-11.51,3.3-3.3,7.14-5.89,11.51-7.78,4.38-1.89,9.06-2.83,14.04-2.83h71.73v-.02h60.32V0h20.53v10.04h3.85c4.98,0,9.66.94,14.04,2.83,4.38,1.89,8.19,4.48,11.44,7.78,3.25,3.3,5.81,7.13,7.7,11.51,1.89,4.38,2.83,9.06,2.83,14.04ZM39.03,96.9l20.98,28.54c.61.82,1.89.75,2.35-.16.12-.23.23-.47.33-.7.36-.86.69-1.78.98-2.74.81-2.7,1.08-5.39.8-8.07-.27-2.68-1.06-5.18-2.37-7.49-1.31-2.31-3.09-4.36-5.37-6.14-2.28-1.79-5.03-3.16-8.26-4.13-.72-.22-1.55-.43-2.49-.63-.94-.2-1.9-.36-2.89-.47-.99-.11-1.96-.18-2.9-.2h-.03c-1.14-.02-1.81,1.27-1.14,2.19Z"/></g></svg>